# xmcd CD database file
# Copyright (C) 1993-1996 Ti Kan
#
# Track frame offsets:
# 150
# 12717
# 26680
# 38655
# 49810
# 63777
# 75477
# 85192
# 96502
# 106302
# 117570
# 126240
# 136465
# 147342
# 160170
# 169815
# 180187
# 193770
# 206107
# 218815
# 232467
# 246080
# 256832
# 269790
# 282252
# 296110
# 306765
# 319525
# 332777
#
# Disc length: 4611 seconds
#
# Revision: 0
# Processed by: cddbd v1.4b41PL1 Copyright (c) Steve Scherf et al.
# Submitted via: inCDius 1.1b5
#
DISCID=bc12011d
DTITLE=Ray Price - Ray Price And The Cherokee Cowboys Disc 5
DYEAR=1900
DGENRE=
TTITLE0=There'll Be No Teardrops Tonight
TTITLE1=Driftwood On The River
TTITLE2=Deep Water
TTITLE3=I'll Keep On Loving You
TTITLE4=I Love You So Much, It Hurts
TTITLE5=I Told You So
TTITLE6=Ice Cold Heart
TTITLE7=I've Gotta Have My Baby Back
TTITLE8=Please Don't Leave Me
TTITLE9=Talk To Your Heart
TTITLE10=I'm Tired
TTITLE11=Wondering
TTITLE12=Walkin' The Floor
TTITLE13=Invitation To The Blues
TTITLE14=I've Got To Know
TTITLE15=Heartaches Must Be Your Name
TTITLE16=City Lights
TTITLE17=Kissing Your Picture (Is So Cold)
TTITLE18=That's What It's Like To Be Lonesome  
TTITLE19=Punish Me Tomorrow
TTITLE20=Heartaches By The Number
TTITLE21=Wild And Wicked World
TTITLE22=Beyond The Last Mile
TTITLE23=The Same Old Me
TTITLE24=Under Your Spell Again
TTITLE25=Broken Hearts Will Haunt Your Soul
TTITLE26=One More Time
TTITLE27=Who'll Be The First
TTITLE28=City Lights
EXTD=
EXTT0=
EXTT1=
EXTT2=
EXTT3=
EXTT4=
EXTT5=
EXTT6=
EXTT7=
EXTT8=
EXTT9=
EXTT10=
EXTT11=
EXTT12=
EXTT13=
EXTT14=
EXTT15=
EXTT16=
EXTT17=
EXTT18=
EXTT19=
EXTT20=
EXTT21=
EXTT22=
EXTT23=
EXTT24=
EXTT25=
EXTT26=
EXTT27=
EXTT28=
PLAYORDER=
